
<svg width="459px" height="208px" viewBox="0 0 459 208" version="1.1" xmlns="http://www.w3.org/2000/svg" xmlns:xlink="http://www.w3.org/1999/xlink">
    <!-- Generator: Sketch 45.2 (43514) - http://www.bohemiancoding.com/sketch -->
    <desc>Created with Sketch.</desc>
    <defs>
        <path d="M-23.125,129.5 L-23.125,107.144 C-23.125,104.983989 -23.3949973,103.418005 -23.935,102.446 C-24.4750027,101.473995 -25.3659938,100.988 -26.608,100.988 C-27.5260046,100.988 -28.4034958,101.419996 -29.2405,102.284 C-30.0775042,103.148004 -30.496,104.686989 -30.496,106.901 L-30.496,129.5 L-49.207,129.5 L-49.207,86.894 L-30.982,86.894 L-30.982,91.592 L-30.82,91.592 C-30.2799973,90.889996 -29.6185039,90.201503 -28.8355,89.5265 C-28.0524961,88.851497 -27.161505,88.230503 -26.1625,87.6635 C-25.163495,87.096497 -24.0430062,86.637502 -22.801,86.2865 C-21.5589938,85.935498 -20.2090073,85.76 -18.751,85.76 C-15.942986,85.76 -13.5130103,86.259495 -11.461,87.2585 C-9.4089897,88.257505 -7.7890059,89.809989 -6.601,91.916 C-5.196993,90.187991 -3.4690103,88.730006 -1.417,87.542 C0.6350103,86.353994 3.2269843,85.76 6.359,85.76 C9.3830151,85.76 11.8804901,86.353994 13.8515,87.542 C15.82251,88.730006 17.388494,90.214991 18.5495,91.997 C19.710506,93.779009 20.520498,95.70949 20.9795,97.7885 C21.438502,99.86751 21.668,101.797991 21.668,103.58 L21.668,129.5 L2.957,129.5 L2.957,106.82 C2.957,104.497988 2.6735028,102.945504 2.1065,102.1625 C1.5394972,101.379496 0.6620059,100.988 -0.526,100.988 C-1.6060054,100.988 -2.5239962,101.487495 -3.28,102.4865 C-4.0360038,103.485505 -4.414,104.95699 -4.414,106.901 L-4.414,129.5 L-23.125,129.5 Z M52.61,111.842 C49.855986,111.842 47.642008,112.138997 45.968,112.733 C44.293992,113.327003 43.457,114.433992 43.457,116.054 C43.457,116.648003 43.591999,117.147498 43.862,117.5525 C44.132001,117.957502 44.482998,118.294999 44.915,118.565 C45.347002,118.835001 45.819497,119.037499 46.3325,119.1725 C46.845503,119.307501 47.317998,119.375 47.75,119.375 C49.532009,119.375 50.962995,118.808006 52.043,117.674 C53.123005,116.539994 53.663,115.082009 53.663,113.3 L53.663,111.842 L52.61,111.842 Z M52.448,102.446 C52.448,101.149994 52.002504,100.191503 51.1115,99.5705 C50.220496,98.949497 49.046007,98.639 47.588,98.639 C45.859991,98.639 44.226508,99.003496 42.6875,99.7325 C41.148492,100.461504 39.785006,101.311995 38.597,102.284 L29.282,93.05 C31.874013,90.565988 34.951982,88.649007 38.516,87.299 C42.080018,85.948993 45.751981,85.274 49.532,85.274 C53.58202,85.274 56.929987,85.840994 59.576,86.975 C62.222013,88.109006 64.314492,89.67499 65.8535,91.673 C67.392508,93.67101 68.472497,95.992987 69.0935,98.639 C69.714503,101.285013 70.025,104.092985 70.025,107.063 L70.025,129.5 L53.096,129.5 L53.096,126.098 L52.934,126.098 C51.853995,127.718008 50.31501,128.878996 48.317,129.581 C46.31899,130.283004 44.375009,130.634 42.485,130.634 C40.810992,130.634 39.096509,130.391002 37.3415,129.905 C35.586491,129.418998 33.993507,128.636005 32.5625,127.556 C31.131493,126.475995 29.957005,125.072009 29.039,123.344 C28.120995,121.615991 27.662,119.483013 27.662,116.945 C27.662,113.974985 28.431492,111.558509 29.9705,109.6955 C31.509508,107.832491 33.466988,106.374505 35.843,105.3215 C38.219012,104.268495 40.878485,103.553002 43.8215,103.175 C46.764515,102.796998 49.639986,102.608 52.448,102.608 L52.448,102.446 Z M95.459,130.634 C89.734971,130.634 85.496014,129.405512 82.742,126.9485 C79.987986,124.491488 78.611,120.671026 78.611,115.487 L78.611,100.259 L72.617,100.259 L72.617,86.894 L78.53,86.894 L78.53,77.336 L96.674,77.336 L96.674,86.894 L105.908,86.894 L105.908,100.259 L96.674,100.259 L96.674,111.599 C96.674,113.65101 97.119496,115.041496 98.0105,115.7705 C98.901504,116.499504 100.129992,116.864 101.696,116.864 C102.290003,116.864 102.910997,116.810001 103.559,116.702 C104.207003,116.593999 104.719998,116.486001 105.098,116.378 L105.098,129.176 C104.125995,129.608002 102.762509,129.958999 101.0075,130.229 C99.252491,130.499001 97.40301,130.634 95.459,130.634 Z M127.13,130.634 C121.405971,130.634 117.167014,129.405512 114.413,126.9485 C111.658986,124.491488 110.282,120.671026 110.282,115.487 L110.282,100.259 L104.288,100.259 L104.288,86.894 L110.201,86.894 L110.201,77.336 L128.345,77.336 L128.345,86.894 L137.579,86.894 L137.579,100.259 L128.345,100.259 L128.345,111.599 C128.345,113.65101 128.790496,115.041496 129.6815,115.7705 C130.572504,116.499504 131.800992,116.864 133.367,116.864 C133.961003,116.864 134.581997,116.810001 135.23,116.702 C135.878003,116.593999 136.390998,116.486001 136.769,116.378 L136.769,129.176 C135.796995,129.608002 134.433509,129.958999 132.6785,130.229 C130.923491,130.499001 129.07401,130.634 127.13,130.634 Z" id="path-1"></path>
        <filter x="-9.9%" y="-47.8%" width="119.8%" height="169.4%" filterUnits="objectBoundingBox" id="filter-2">
            <feOffset dx="0" dy="-7" in="SourceAlpha" result="shadowOffsetOuter1"></feOffset>
            <feGaussianBlur stdDeviation="5" in="shadowOffsetOuter1" result="shadowBlurOuter1"></feGaussianBlur>
            <feColorMatrix values="0 0 0 0 0   0 0 0 0 0   0 0 0 0 0  0 0 0 0.1 0" type="matrix" in="shadowBlurOuter1"></feColorMatrix>
        </filter>
        <linearGradient x1="56.4929008%" y1="0%" x2="56.4929008%" y2="100%" id="linearGradient-3">
            <stop stop-color="#FF004E" offset="0%"></stop>
            <stop stop-color="#FF2265" offset="100%"></stop>
        </linearGradient>
    </defs>
    <g id="Page-1" stroke="none" stroke-width="1" fill="none" fill-rule="evenodd">
        <g id="matt" transform="translate(44.186000, 103.985000) rotate(-90.000000) translate(-44.186000, -103.985000) ">
            <use fill="black" fill-opacity="1" filter="url(#filter-2)" xlink:href="#path-1"></use>
            <use fill="#FFFFFF" fill-rule="evenodd" xlink:href="#path-1"></use>
        </g>
        <path d="M63.592,46.535 C63.592,43.780986 64.010496,41.081013 64.8475,38.435 C65.684504,35.788987 66.912992,33.413011 68.533,31.307 C70.153008,29.200989 72.177988,27.500006 74.608,26.204 C77.038012,24.907994 79.845984,24.26 83.032,24.26 C85.08401,24.26 87.13599,24.651496 89.188,25.4345 C91.24001,26.217504 92.886994,27.337993 94.129,28.796 L94.291,28.796 L94.291,6.764 L112.921,6.764 L112.921,68 L96.154,68 L96.154,63.545 L95.992,63.545 C94.749994,65.273009 92.941012,66.636495 90.565,67.6355 C88.188988,68.634505 85.678013,69.134 83.032,69.134 C79.845984,69.134 77.038012,68.486006 74.608,67.19 C72.177988,65.893994 70.153008,64.179511 68.533,62.0465 C66.912992,59.913489 65.684504,57.497014 64.8475,54.797 C64.010496,52.096987 63.592,49.343014 63.592,46.535 Z M80.926,46.535 C80.926,48.58701 81.519994,50.301493 82.708,51.6785 C83.896006,53.055507 85.623989,53.744 87.892,53.744 C90.106011,53.744 91.874493,53.042007 93.1975,51.638 C94.520507,50.233993 95.182,48.53301 95.182,46.535 C95.182,44.644991 94.520507,42.998007 93.1975,41.594 C91.874493,40.189993 90.106011,39.488 87.892,39.488 C85.623989,39.488 83.896006,40.189993 82.708,41.594 C81.519994,42.998007 80.926,44.644991 80.926,46.535 Z M121.588,25.394 L140.299,25.394 L140.299,68 L121.588,68 L121.588,25.394 Z M121.264,13.082 C121.264,11.785994 121.520497,10.557506 122.0335,9.3965 C122.546503,8.235494 123.248496,7.223004 124.1395,6.359 C125.030504,5.494996 126.069994,4.806503 127.258,4.2935 C128.446006,3.780497 129.714993,3.524 131.065,3.524 C132.361006,3.524 133.575994,3.780497 134.71,4.2935 C135.844006,4.806503 136.856496,5.494996 137.7475,6.359 C138.638504,7.223004 139.340497,8.235494 139.8535,9.3965 C140.366503,10.557506 140.623,11.785994 140.623,13.082 C140.623,14.432007 140.366503,15.687494 139.8535,16.8485 C139.340497,18.009506 138.638504,19.008496 137.7475,19.8455 C136.856496,20.682504 135.844006,21.343998 134.71,21.83 C133.575994,22.316002 132.361006,22.559 131.065,22.559 C129.714993,22.559 128.446006,22.316002 127.258,21.83 C126.069994,21.343998 125.030504,20.682504 124.1395,19.8455 C123.248496,19.008496 122.546503,18.009506 122.0335,16.8485 C121.520497,15.687494 121.264,14.432007 121.264,13.082 Z M183.877,54.473 C183.877,57.335014 183.269506,59.73799 182.0545,61.682 C180.839494,63.62601 179.300509,65.178494 177.4375,66.3395 C175.574491,67.500506 173.536011,68.337497 171.322,68.8505 C169.107989,69.363503 167.00201,69.62 165.004,69.62 C161.331982,69.62 157.727518,69.093505 154.1905,68.0405 C150.653482,66.987495 147.589013,65.48901 144.997,63.545 L154.15,52.934 C155.446006,54.122006 156.971491,55.080496 158.7265,55.8095 C160.481509,56.538504 162.168992,56.903 163.789,56.903 C164.437003,56.903 165.044497,56.781501 165.6115,56.5385 C166.178503,56.295499 166.462,55.850003 166.462,55.202 C166.462,54.499996 165.962505,53.946502 164.9635,53.5415 C163.964495,53.136498 162.223012,52.637003 159.739,52.043 C158.388993,51.718998 157.012007,51.246503 155.608,50.6255 C154.203993,50.004497 152.921506,49.181005 151.7605,48.155 C150.599494,47.128995 149.641004,45.873507 148.885,44.3885 C148.128996,42.903493 147.751,41.13501 147.751,39.083 C147.751,36.328986 148.358494,33.98001 149.5735,32.036 C150.788506,30.09199 152.327491,28.512506 154.1905,27.2975 C156.053509,26.082494 158.078489,25.191503 160.2655,24.6245 C162.452511,24.057497 164.51799,23.774 166.462,23.774 C169.756016,23.774 173.022984,24.259995 176.263,25.232 C179.503016,26.204005 182.418987,27.553991 185.011,29.282 L176.263,39.731 C174.912993,38.866996 173.536007,38.192002 172.132,37.706 C170.727993,37.219998 169.351007,36.977 168.001,36.977 C167.082995,36.977 166.327003,37.098499 165.733,37.3415 C165.138997,37.584501 164.842,38.056996 164.842,38.759 C164.842,39.299003 165.179497,39.717499 165.8545,40.0145 C166.529503,40.311501 168.081988,40.702998 170.512,41.189 C172.186008,41.513002 173.819492,42.012497 175.4125,42.6875 C177.005508,43.362503 178.436494,44.226495 179.7055,45.2795 C180.974506,46.332505 181.986996,47.614992 182.743,49.127 C183.499004,50.639008 183.877,52.42099 183.877,54.473 Z M209.068,69.134 C203.343971,69.134 199.105014,67.905512 196.351,65.4485 C193.596986,62.991488 192.22,59.171026 192.22,53.987 L192.22,38.759 L186.226,38.759 L186.226,25.394 L192.139,25.394 L192.139,15.836 L210.283,15.836 L210.283,25.394 L219.517,25.394 L219.517,38.759 L210.283,38.759 L210.283,50.099 C210.283,52.15101 210.728496,53.541496 211.6195,54.2705 C212.510504,54.999504 213.738992,55.364 215.305,55.364 C215.899003,55.364 216.519997,55.310001 217.168,55.202 C217.816003,55.093999 218.328998,54.986001 218.707,54.878 L218.707,67.676 C217.734995,68.108002 216.371509,68.458999 214.6165,68.729 C212.861491,68.999001 211.01201,69.134 209.068,69.134 Z M252.97,41.027 C252.97,39.514992 252.416506,38.273005 251.3095,37.301 C250.202494,36.328995 248.704009,35.843 246.814,35.843 C244.76199,35.843 243.169006,36.409994 242.035,37.544 C240.900994,38.678006 240.253001,39.838994 240.091,41.027 L252.97,41.027 Z M269.089,47.102 C269.089,47.804004 269.0755,48.519496 269.0485,49.2485 C269.0215,49.977504 268.981,50.584998 268.927,51.071 L240.253,51.071 C240.307,51.827004 240.563498,52.501997 241.0225,53.096 C241.481502,53.690003 242.048497,54.202998 242.7235,54.635 C243.398503,55.067002 244.154496,55.390999 244.9915,55.607 C245.828504,55.823001 246.678996,55.931 247.543,55.931 C249.271009,55.931 250.715494,55.620503 251.8765,54.9995 C253.037506,54.378497 253.914997,53.690004 254.509,52.934 L267.793,59.657 C265.902991,62.735015 263.162518,65.164991 259.5715,66.947 C255.980482,68.729009 251.809024,69.62 247.057,69.62 C243.978985,69.62 240.982015,69.134005 238.066,68.162 C235.149985,67.189995 232.571511,65.74551 230.3305,63.8285 C228.089489,61.91149 226.294007,59.522014 224.944,56.66 C223.593993,53.797986 222.919,50.477019 222.919,46.697 C222.919,43.186982 223.539994,40.014514 224.782,37.1795 C226.024006,34.344486 227.711489,31.94151 229.8445,29.9705 C231.977511,27.99949 234.488486,26.474005 237.3775,25.394 C240.266514,24.313995 243.357984,23.774 246.652,23.774 C250.000017,23.774 253.050986,24.354494 255.805,25.5155 C258.559014,26.676506 260.92149,28.29649 262.8925,30.3755 C264.86351,32.45451 266.388995,34.924986 267.469,37.787 C268.549005,40.649014 269.089,43.753983 269.089,47.102 Z M305.863,19.562 C305.376998,19.345999 304.810003,19.170501 304.162,19.0355 C303.513997,18.900499 302.866003,18.833 302.218,18.833 C300.381991,18.833 299.099504,19.399994 298.3705,20.534 C297.641496,21.668006 297.277,23.098991 297.277,24.827 L297.277,25.394 L306.268,25.394 L306.268,38.759 L297.277,38.759 L297.277,68 L278.647,68 L278.647,38.759 L271.357,38.759 L271.357,25.394 L278.647,25.394 L278.647,24.422 C278.647,21.775987 278.957497,19.238012 279.5785,16.808 C280.199503,14.377988 281.265992,12.231509 282.778,10.3685 C284.290008,8.505491 286.328487,7.034005 288.8935,5.954 C291.458513,4.873995 294.684981,4.334 298.573,4.334 C299.815006,4.334 301.259492,4.428499 302.9065,4.6175 C304.553508,4.806501 305.943994,5.116998 307.078,5.549 L305.863,19.562 Z M332.755,50.342 C330.000986,50.342 327.787008,50.638997 326.113,51.233 C324.438992,51.827003 323.602,52.933992 323.602,54.554 C323.602,55.148003 323.736999,55.647498 324.007,56.0525 C324.277001,56.457502 324.627998,56.794999 325.06,57.065 C325.492002,57.335001 325.964497,57.537499 326.4775,57.6725 C326.990503,57.807501 327.462998,57.875 327.895,57.875 C329.677009,57.875 331.107995,57.308006 332.188,56.174 C333.268005,55.039994 333.808,53.582009 333.808,51.8 L333.808,50.342 L332.755,50.342 Z M332.593,40.946 C332.593,39.649994 332.147504,38.691503 331.2565,38.0705 C330.365496,37.449497 329.191007,37.139 327.733,37.139 C326.004991,37.139 324.371508,37.503496 322.8325,38.2325 C321.293492,38.961504 319.930006,39.811995 318.742,40.784 L309.427,31.55 C312.019013,29.065988 315.096982,27.149007 318.661,25.799 C322.225018,24.448993 325.896981,23.774 329.677,23.774 C333.72702,23.774 337.074987,24.340994 339.721,25.475 C342.367013,26.609006 344.459492,28.17499 345.9985,30.173 C347.537508,32.17101 348.617497,34.492987 349.2385,37.139 C349.859503,39.785013 350.17,42.592985 350.17,45.563 L350.17,68 L333.241,68 L333.241,64.598 L333.079,64.598 C331.998995,66.218008 330.46001,67.378996 328.462,68.081 C326.46399,68.783004 324.520009,69.134 322.63,69.134 C320.955992,69.134 319.241509,68.891002 317.4865,68.405 C315.731491,67.918998 314.138507,67.136005 312.7075,66.056 C311.276493,64.975995 310.102005,63.572009 309.184,61.844 C308.265995,60.115991 307.807,57.983013 307.807,55.445 C307.807,52.474985 308.576492,50.058509 310.1155,48.1955 C311.654508,46.332491 313.611988,44.874505 315.988,43.8215 C318.364012,42.768495 321.023485,42.053002 323.9665,41.675 C326.909515,41.296998 329.784986,41.108 332.593,41.108 L332.593,40.946 Z M357.865,25.394 L376.09,25.394 L376.09,30.092 L376.252,30.092 C377.332005,28.525992 378.938489,27.162506 381.0715,26.0015 C383.204511,24.840494 385.647986,24.26 388.402,24.26 C391.372015,24.26 393.84249,24.799995 395.8135,25.88 C397.78451,26.960005 399.350494,28.350491 400.5115,30.0515 C401.672506,31.752509 402.482498,33.655989 402.9415,35.762 C403.400502,37.868011 403.63,39.973989 403.63,42.08 L403.63,68 L384.838,68 L384.838,45.32 C384.838,43.159989 384.500503,41.648004 383.8255,40.784 C383.150497,39.919996 382.138007,39.488 380.788,39.488 C379.545994,39.488 378.533504,39.987495 377.7505,40.9865 C376.967496,41.985505 376.576,43.429991 376.576,45.32 L376.576,68 L357.865,68 L357.865,25.394 Z M458.71,46.535 C458.71,50.207018 458.048507,53.473986 456.7255,56.336 C455.402493,59.198014 453.620511,61.61449 451.3795,63.5855 C449.138489,65.55651 446.546515,67.054995 443.6035,68.081 C440.660485,69.107005 437.569016,69.62 434.329,69.62 C431.142984,69.62 428.078515,69.107005 425.1355,68.081 C422.192485,67.054995 419.614011,65.55651 417.4,63.5855 C415.185989,61.61449 413.417507,59.198014 412.0945,56.336 C410.771493,53.473986 410.11,50.207018 410.11,46.535 C410.11,42.916982 410.771493,39.690514 412.0945,36.8555 C413.417507,34.020486 415.185989,31.63101 417.4,29.687 C419.614011,27.74299 422.192485,26.271505 425.1355,25.2725 C428.078515,24.273495 431.142984,23.774 434.329,23.774 C437.569016,23.774 440.660485,24.273495 443.6035,25.2725 C446.546515,26.271505 449.138489,27.74299 451.3795,29.687 C453.620511,31.63101 455.402493,34.020486 456.7255,36.8555 C458.048507,39.690514 458.71,42.916982 458.71,46.535 Z M434.329,39.488 C432.27699,39.488 430.616506,40.189993 429.3475,41.594 C428.078494,42.998007 427.444,44.644991 427.444,46.535 C427.444,48.53301 428.091994,50.233993 429.388,51.638 C430.684006,53.042007 432.35799,53.744 434.41,53.744 C436.46201,53.744 438.135994,53.042007 439.432,51.638 C440.728006,50.233993 441.376,48.53301 441.376,46.535 C441.376,44.644991 440.714507,42.998007 439.3915,41.594 C438.068493,40.189993 436.38101,39.488 434.329,39.488 Z" id="distefano" fill="url(#linearGradient-3)"></path>
    </g>
</svg>