
<svg width="55px" height="29px" viewBox="0 0 55 29" version="1.1" xmlns="http://www.w3.org/2000/svg" xmlns:xlink="http://www.w3.org/1999/xlink">
    <!-- Generator: Sketch 45.2 (43514) - http://www.bohemiancoding.com/sketch -->
    <desc>Created with Sketch.</desc>
    <defs></defs>
    <g id="Page-1" stroke="none" stroke-width="1" fill="none" fill-rule="evenodd">
        <path d="M12.5,28 L12.5,18.064 C12.5,17.1039952 12.3800012,16.4080022 12.14,15.976 C11.8999988,15.5439978 11.5040028,15.328 10.952,15.328 C10.543998,15.328 10.1540019,15.5199981 9.782,15.904 C9.40999814,16.2880019 9.224,16.9719951 9.224,17.956 L9.224,28 L0.908,28 L0.908,9.064 L9.008,9.064 L9.008,11.152 L9.08,11.152 C9.3200012,10.8399984 9.61399826,10.5340015 9.962,10.234 C10.3100017,9.9339985 10.7059978,9.65800126 11.15,9.406 C11.5940022,9.15399874 12.0919972,8.95000078 12.644,8.794 C13.1960028,8.63799922 13.7959968,8.56 14.444,8.56 C15.6920062,8.56 16.7719954,8.78199778 17.684,9.226 C18.5960046,9.67000222 19.3159974,10.3599953 19.844,11.296 C20.4680031,10.5279962 21.2359954,9.88000264 22.148,9.352 C23.0600046,8.82399736 24.211993,8.56 25.604,8.56 C26.9480067,8.56 28.0579956,8.82399736 28.934,9.352 C29.8100044,9.88000264 30.5059974,10.539996 31.022,11.332 C31.5380026,12.124004 31.897999,12.9819954 32.102,13.906 C32.306001,14.8300046 32.408,15.687996 32.408,16.48 L32.408,28 L24.092,28 L24.092,17.92 C24.092,16.8879948 23.9660013,16.1980017 23.714,15.85 C23.4619987,15.5019983 23.0720026,15.328 22.544,15.328 C22.0639976,15.328 21.6560017,15.5499978 21.32,15.994 C20.9839983,16.4380022 20.816,17.0919957 20.816,17.956 L20.816,28 L12.5,28 Z M32.288,18.46 C32.288,17.2359939 32.4739981,16.0360059 32.846,14.86 C33.2180019,13.6839941 33.7639964,12.6280047 34.484,11.692 C35.2040036,10.7559953 36.1039946,10.0000029 37.184,9.424 C38.2640054,8.84799712 39.5119929,8.56 40.928,8.56 C41.8400046,8.56 42.7519954,8.73399826 43.664,9.082 C44.5760046,9.43000174 45.3079972,9.92799676 45.86,10.576 L45.932,10.576 L45.932,0.784 L54.212,0.784 L54.212,28 L46.76,28 L46.76,26.02 L46.688,26.02 C46.1359972,26.7880038 45.3320053,27.3939978 44.276,27.838 C43.2199947,28.2820022 42.1040059,28.504 40.928,28.504 C39.5119929,28.504 38.2640054,28.2160029 37.184,27.64 C36.1039946,27.0639971 35.2040036,26.3020047 34.484,25.354 C33.7639964,24.4059953 33.2180019,23.332006 32.846,22.132 C32.4739981,20.931994 32.288,19.7080062 32.288,18.46 Z M39.992,18.46 C39.992,19.3720046 40.2559974,20.1339969 40.784,20.746 C41.3120026,21.3580031 42.079995,21.664 43.088,21.664 C44.0720049,21.664 44.8579971,21.3520031 45.446,20.728 C46.0340029,20.1039969 46.328,19.3480044 46.328,18.46 C46.328,17.6199958 46.0340029,16.8880031 45.446,16.264 C44.8579971,15.6399969 44.0720049,15.328 43.088,15.328 C42.079995,15.328 41.3120026,15.6399969 40.784,16.264 C40.2559974,16.8880031 39.992,17.6199958 39.992,18.46 Z" id="md" fill="#FFFFFF"></path>
    </g>
</svg>