
<svg width="442px" height="195px" viewBox="0 0 442 195" version="1.1" xmlns="http://www.w3.org/2000/svg" xmlns:xlink="http://www.w3.org/1999/xlink">
    <!-- Generator: Sketch 45.2 (43514) - http://www.bohemiancoding.com/sketch -->
    <desc>Created with Sketch.</desc>
    <defs>
        <linearGradient x1="56.4929008%" y1="0%" x2="56.4929008%" y2="100%" id="linearGradient-1">
            <stop stop-color="#FF004E" offset="0%"></stop>
            <stop stop-color="#FF2265" offset="100%"></stop>
        </linearGradient>
    </defs>
    <g id="Page-1" stroke="none" stroke-width="1" fill="none" fill-rule="evenodd">
        <path d="M-40.125,126.5 L-40.125,104.144 C-40.125,101.983989 -40.3949973,100.418005 -40.935,99.446 C-41.4750027,98.473995 -42.3659938,97.988 -43.608,97.988 C-44.5260046,97.988 -45.4034958,98.419996 -46.2405,99.284 C-47.0775042,100.148004 -47.496,101.686989 -47.496,103.901 L-47.496,126.5 L-66.207,126.5 L-66.207,83.894 L-47.982,83.894 L-47.982,88.592 L-47.82,88.592 C-47.2799973,87.889996 -46.6185039,87.201503 -45.8355,86.5265 C-45.0524961,85.851497 -44.161505,85.230503 -43.1625,84.6635 C-42.163495,84.096497 -41.0430062,83.637502 -39.801,83.2865 C-38.5589938,82.935498 -37.2090073,82.76 -35.751,82.76 C-32.942986,82.76 -30.5130103,83.259495 -28.461,84.2585 C-26.4089897,85.257505 -24.7890059,86.809989 -23.601,88.916 C-22.196993,87.187991 -20.4690103,85.730006 -18.417,84.542 C-16.3649897,83.353994 -13.7730157,82.76 -10.641,82.76 C-7.6169849,82.76 -5.1195099,83.353994 -3.1485,84.542 C-1.17749,85.730006 0.388494,87.214991 1.5495,88.997 C2.710506,90.779009 3.520498,92.70949 3.9795,94.7885 C4.438502,96.86751 4.668,98.797991 4.668,100.58 L4.668,126.5 L-14.043,126.5 L-14.043,103.82 C-14.043,101.497988 -14.3264972,99.945504 -14.8935,99.1625 C-15.4605028,98.379496 -16.3379941,97.988 -17.526,97.988 C-18.6060054,97.988 -19.5239962,98.487495 -20.28,99.4865 C-21.0360038,100.485505 -21.414,101.95699 -21.414,103.901 L-21.414,126.5 L-40.125,126.5 Z M35.61,108.842 C32.855986,108.842 30.642008,109.138997 28.968,109.733 C27.293992,110.327003 26.457,111.433992 26.457,113.054 C26.457,113.648003 26.591999,114.147498 26.862,114.5525 C27.132001,114.957502 27.482998,115.294999 27.915,115.565 C28.347002,115.835001 28.819497,116.037499 29.3325,116.1725 C29.845503,116.307501 30.317998,116.375 30.75,116.375 C32.532009,116.375 33.962995,115.808006 35.043,114.674 C36.123005,113.539994 36.663,112.082009 36.663,110.3 L36.663,108.842 L35.61,108.842 Z M35.448,99.446 C35.448,98.149994 35.002504,97.191503 34.1115,96.5705 C33.220496,95.949497 32.046007,95.639 30.588,95.639 C28.859991,95.639 27.226508,96.003496 25.6875,96.7325 C24.148492,97.461504 22.785006,98.311995 21.597,99.284 L12.282,90.05 C14.874013,87.565988 17.951982,85.649007 21.516,84.299 C25.080018,82.948993 28.751981,82.274 32.532,82.274 C36.58202,82.274 39.929987,82.840994 42.576,83.975 C45.222013,85.109006 47.314492,86.67499 48.8535,88.673 C50.392508,90.67101 51.472497,92.992987 52.0935,95.639 C52.714503,98.285013 53.025,101.092985 53.025,104.063 L53.025,126.5 L36.096,126.5 L36.096,123.098 L35.934,123.098 C34.853995,124.718008 33.31501,125.878996 31.317,126.581 C29.31899,127.283004 27.375009,127.634 25.485,127.634 C23.810992,127.634 22.096509,127.391002 20.3415,126.905 C18.586491,126.418998 16.993507,125.636005 15.5625,124.556 C14.131493,123.475995 12.957005,122.072009 12.039,120.344 C11.120995,118.615991 10.662,116.483013 10.662,113.945 C10.662,110.974985 11.431492,108.558509 12.9705,106.6955 C14.509508,104.832491 16.466988,103.374505 18.843,102.3215 C21.219012,101.268495 23.878485,100.553002 26.8215,100.175 C29.764515,99.796998 32.639986,99.608 35.448,99.608 L35.448,99.446 Z M78.459,127.634 C72.734971,127.634 68.496014,126.405512 65.742,123.9485 C62.987986,121.491488 61.611,117.671026 61.611,112.487 L61.611,97.259 L55.617,97.259 L55.617,83.894 L61.53,83.894 L61.53,74.336 L79.674,74.336 L79.674,83.894 L88.908,83.894 L88.908,97.259 L79.674,97.259 L79.674,108.599 C79.674,110.65101 80.119496,112.041496 81.0105,112.7705 C81.901504,113.499504 83.129992,113.864 84.696,113.864 C85.290003,113.864 85.910997,113.810001 86.559,113.702 C87.207003,113.593999 87.719998,113.486001 88.098,113.378 L88.098,126.176 C87.125995,126.608002 85.762509,126.958999 84.0075,127.229 C82.252491,127.499001 80.40301,127.634 78.459,127.634 Z M110.13,127.634 C104.405971,127.634 100.167014,126.405512 97.413,123.9485 C94.658986,121.491488 93.282,117.671026 93.282,112.487 L93.282,97.259 L87.288,97.259 L87.288,83.894 L93.201,83.894 L93.201,74.336 L111.345,74.336 L111.345,83.894 L120.579,83.894 L120.579,97.259 L111.345,97.259 L111.345,108.599 C111.345,110.65101 111.790496,112.041496 112.6815,112.7705 C113.572504,113.499504 114.800992,113.864 116.367,113.864 C116.961003,113.864 117.581997,113.810001 118.23,113.702 C118.878003,113.593999 119.390998,113.486001 119.769,113.378 L119.769,126.176 C118.796995,126.608002 117.433509,126.958999 115.6785,127.229 C113.923491,127.499001 112.07401,127.634 110.13,127.634 Z" id="matt" fill="#FFFFFF" transform="translate(27.186000, 100.985000) rotate(-90.000000) translate(-27.186000, -100.985000) "></path>
        <path d="M46.592,43.535 C46.592,40.780986 47.010496,38.081013 47.8475,35.435 C48.684504,32.788987 49.912992,30.413011 51.533,28.307 C53.153008,26.200989 55.177988,24.500006 57.608,23.204 C60.038012,21.907994 62.845984,21.26 66.032,21.26 C68.08401,21.26 70.13599,21.651496 72.188,22.4345 C74.24001,23.217504 75.886994,24.337993 77.129,25.796 L77.291,25.796 L77.291,3.764 L95.921,3.764 L95.921,65 L79.154,65 L79.154,60.545 L78.992,60.545 C77.749994,62.273009 75.941012,63.636495 73.565,64.6355 C71.188988,65.634505 68.678013,66.134 66.032,66.134 C62.845984,66.134 60.038012,65.486006 57.608,64.19 C55.177988,62.893994 53.153008,61.179511 51.533,59.0465 C49.912992,56.913489 48.684504,54.497014 47.8475,51.797 C47.010496,49.096987 46.592,46.343014 46.592,43.535 Z M63.926,43.535 C63.926,45.58701 64.519994,47.301493 65.708,48.6785 C66.896006,50.055507 68.623989,50.744 70.892,50.744 C73.106011,50.744 74.874493,50.042007 76.1975,48.638 C77.520507,47.233993 78.182,45.53301 78.182,43.535 C78.182,41.644991 77.520507,39.998007 76.1975,38.594 C74.874493,37.189993 73.106011,36.488 70.892,36.488 C68.623989,36.488 66.896006,37.189993 65.708,38.594 C64.519994,39.998007 63.926,41.644991 63.926,43.535 Z M104.588,22.394 L123.299,22.394 L123.299,65 L104.588,65 L104.588,22.394 Z M104.264,10.082 C104.264,8.785994 104.520497,7.557506 105.0335,6.3965 C105.546503,5.235494 106.248496,4.223004 107.1395,3.359 C108.030504,2.494996 109.069994,1.806503 110.258,1.2935 C111.446006,0.780497 112.714993,0.524 114.065,0.524 C115.361006,0.524 116.575994,0.780497 117.71,1.2935 C118.844006,1.806503 119.856496,2.494996 120.7475,3.359 C121.638504,4.223004 122.340497,5.235494 122.8535,6.3965 C123.366503,7.557506 123.623,8.785994 123.623,10.082 C123.623,11.432007 123.366503,12.687494 122.8535,13.8485 C122.340497,15.009506 121.638504,16.008496 120.7475,16.8455 C119.856496,17.682504 118.844006,18.343998 117.71,18.83 C116.575994,19.316002 115.361006,19.559 114.065,19.559 C112.714993,19.559 111.446006,19.316002 110.258,18.83 C109.069994,18.343998 108.030504,17.682504 107.1395,16.8455 C106.248496,16.008496 105.546503,15.009506 105.0335,13.8485 C104.520497,12.687494 104.264,11.432007 104.264,10.082 Z M166.877,51.473 C166.877,54.335014 166.269506,56.73799 165.0545,58.682 C163.839494,60.62601 162.300509,62.178494 160.4375,63.3395 C158.574491,64.500506 156.536011,65.337497 154.322,65.8505 C152.107989,66.363503 150.00201,66.62 148.004,66.62 C144.331982,66.62 140.727518,66.093505 137.1905,65.0405 C133.653482,63.987495 130.589013,62.48901 127.997,60.545 L137.15,49.934 C138.446006,51.122006 139.971491,52.080496 141.7265,52.8095 C143.481509,53.538504 145.168992,53.903 146.789,53.903 C147.437003,53.903 148.044497,53.781501 148.6115,53.5385 C149.178503,53.295499 149.462,52.850003 149.462,52.202 C149.462,51.499996 148.962505,50.946502 147.9635,50.5415 C146.964495,50.136498 145.223012,49.637003 142.739,49.043 C141.388993,48.718998 140.012007,48.246503 138.608,47.6255 C137.203993,47.004497 135.921506,46.181005 134.7605,45.155 C133.599494,44.128995 132.641004,42.873507 131.885,41.3885 C131.128996,39.903493 130.751,38.13501 130.751,36.083 C130.751,33.328986 131.358494,30.98001 132.5735,29.036 C133.788506,27.09199 135.327491,25.512506 137.1905,24.2975 C139.053509,23.082494 141.078489,22.191503 143.2655,21.6245 C145.452511,21.057497 147.51799,20.774 149.462,20.774 C152.756016,20.774 156.022984,21.259995 159.263,22.232 C162.503016,23.204005 165.418987,24.553991 168.011,26.282 L159.263,36.731 C157.912993,35.866996 156.536007,35.192002 155.132,34.706 C153.727993,34.219998 152.351007,33.977 151.001,33.977 C150.082995,33.977 149.327003,34.098499 148.733,34.3415 C148.138997,34.584501 147.842,35.056996 147.842,35.759 C147.842,36.299003 148.179497,36.717499 148.8545,37.0145 C149.529503,37.311501 151.081988,37.702998 153.512,38.189 C155.186008,38.513002 156.819492,39.012497 158.4125,39.6875 C160.005508,40.362503 161.436494,41.226495 162.7055,42.2795 C163.974506,43.332505 164.986996,44.614992 165.743,46.127 C166.499004,47.639008 166.877,49.42099 166.877,51.473 Z M192.068,66.134 C186.343971,66.134 182.105014,64.905512 179.351,62.4485 C176.596986,59.991488 175.22,56.171026 175.22,50.987 L175.22,35.759 L169.226,35.759 L169.226,22.394 L175.139,22.394 L175.139,12.836 L193.283,12.836 L193.283,22.394 L202.517,22.394 L202.517,35.759 L193.283,35.759 L193.283,47.099 C193.283,49.15101 193.728496,50.541496 194.6195,51.2705 C195.510504,51.999504 196.738992,52.364 198.305,52.364 C198.899003,52.364 199.519997,52.310001 200.168,52.202 C200.816003,52.093999 201.328998,51.986001 201.707,51.878 L201.707,64.676 C200.734995,65.108002 199.371509,65.458999 197.6165,65.729 C195.861491,65.999001 194.01201,66.134 192.068,66.134 Z M235.97,38.027 C235.97,36.514992 235.416506,35.273005 234.3095,34.301 C233.202494,33.328995 231.704009,32.843 229.814,32.843 C227.76199,32.843 226.169006,33.409994 225.035,34.544 C223.900994,35.678006 223.253001,36.838994 223.091,38.027 L235.97,38.027 Z M252.089,44.102 C252.089,44.804004 252.0755,45.519496 252.0485,46.2485 C252.0215,46.977504 251.981,47.584998 251.927,48.071 L223.253,48.071 C223.307,48.827004 223.563498,49.501997 224.0225,50.096 C224.481502,50.690003 225.048497,51.202998 225.7235,51.635 C226.398503,52.067002 227.154496,52.390999 227.9915,52.607 C228.828504,52.823001 229.678996,52.931 230.543,52.931 C232.271009,52.931 233.715494,52.620503 234.8765,51.9995 C236.037506,51.378497 236.914997,50.690004 237.509,49.934 L250.793,56.657 C248.902991,59.735015 246.162518,62.164991 242.5715,63.947 C238.980482,65.729009 234.809024,66.62 230.057,66.62 C226.978985,66.62 223.982015,66.134005 221.066,65.162 C218.149985,64.189995 215.571511,62.74551 213.3305,60.8285 C211.089489,58.91149 209.294007,56.522014 207.944,53.66 C206.593993,50.797986 205.919,47.477019 205.919,43.697 C205.919,40.186982 206.539994,37.014514 207.782,34.1795 C209.024006,31.344486 210.711489,28.94151 212.8445,26.9705 C214.977511,24.99949 217.488486,23.474005 220.3775,22.394 C223.266514,21.313995 226.357984,20.774 229.652,20.774 C233.000017,20.774 236.050986,21.354494 238.805,22.5155 C241.559014,23.676506 243.92149,25.29649 245.8925,27.3755 C247.86351,29.45451 249.388995,31.924986 250.469,34.787 C251.549005,37.649014 252.089,40.753983 252.089,44.102 Z M288.863,16.562 C288.376998,16.345999 287.810003,16.170501 287.162,16.0355 C286.513997,15.900499 285.866003,15.833 285.218,15.833 C283.381991,15.833 282.099504,16.399994 281.3705,17.534 C280.641496,18.668006 280.277,20.098991 280.277,21.827 L280.277,22.394 L289.268,22.394 L289.268,35.759 L280.277,35.759 L280.277,65 L261.647,65 L261.647,35.759 L254.357,35.759 L254.357,22.394 L261.647,22.394 L261.647,21.422 C261.647,18.775987 261.957497,16.238012 262.5785,13.808 C263.199503,11.377988 264.265992,9.231509 265.778,7.3685 C267.290008,5.505491 269.328487,4.034005 271.8935,2.954 C274.458513,1.873995 277.684981,1.334 281.573,1.334 C282.815006,1.334 284.259492,1.428499 285.9065,1.6175 C287.553508,1.806501 288.943994,2.116998 290.078,2.549 L288.863,16.562 Z M315.755,47.342 C313.000986,47.342 310.787008,47.638997 309.113,48.233 C307.438992,48.827003 306.602,49.933992 306.602,51.554 C306.602,52.148003 306.736999,52.647498 307.007,53.0525 C307.277001,53.457502 307.627998,53.794999 308.06,54.065 C308.492002,54.335001 308.964497,54.537499 309.4775,54.6725 C309.990503,54.807501 310.462998,54.875 310.895,54.875 C312.677009,54.875 314.107995,54.308006 315.188,53.174 C316.268005,52.039994 316.808,50.582009 316.808,48.8 L316.808,47.342 L315.755,47.342 Z M315.593,37.946 C315.593,36.649994 315.147504,35.691503 314.2565,35.0705 C313.365496,34.449497 312.191007,34.139 310.733,34.139 C309.004991,34.139 307.371508,34.503496 305.8325,35.2325 C304.293492,35.961504 302.930006,36.811995 301.742,37.784 L292.427,28.55 C295.019013,26.065988 298.096982,24.149007 301.661,22.799 C305.225018,21.448993 308.896981,20.774 312.677,20.774 C316.72702,20.774 320.074987,21.340994 322.721,22.475 C325.367013,23.609006 327.459492,25.17499 328.9985,27.173 C330.537508,29.17101 331.617497,31.492987 332.2385,34.139 C332.859503,36.785013 333.17,39.592985 333.17,42.563 L333.17,65 L316.241,65 L316.241,61.598 L316.079,61.598 C314.998995,63.218008 313.46001,64.378996 311.462,65.081 C309.46399,65.783004 307.520009,66.134 305.63,66.134 C303.955992,66.134 302.241509,65.891002 300.4865,65.405 C298.731491,64.918998 297.138507,64.136005 295.7075,63.056 C294.276493,61.975995 293.102005,60.572009 292.184,58.844 C291.265995,57.115991 290.807,54.983013 290.807,52.445 C290.807,49.474985 291.576492,47.058509 293.1155,45.1955 C294.654508,43.332491 296.611988,41.874505 298.988,40.8215 C301.364012,39.768495 304.023485,39.053002 306.9665,38.675 C309.909515,38.296998 312.784986,38.108 315.593,38.108 L315.593,37.946 Z M340.865,22.394 L359.09,22.394 L359.09,27.092 L359.252,27.092 C360.332005,25.525992 361.938489,24.162506 364.0715,23.0015 C366.204511,21.840494 368.647986,21.26 371.402,21.26 C374.372015,21.26 376.84249,21.799995 378.8135,22.88 C380.78451,23.960005 382.350494,25.350491 383.5115,27.0515 C384.672506,28.752509 385.482498,30.655989 385.9415,32.762 C386.400502,34.868011 386.63,36.973989 386.63,39.08 L386.63,65 L367.838,65 L367.838,42.32 C367.838,40.159989 367.500503,38.648004 366.8255,37.784 C366.150497,36.919996 365.138007,36.488 363.788,36.488 C362.545994,36.488 361.533504,36.987495 360.7505,37.9865 C359.967496,38.985505 359.576,40.429991 359.576,42.32 L359.576,65 L340.865,65 L340.865,22.394 Z M441.71,43.535 C441.71,47.207018 441.048507,50.473986 439.7255,53.336 C438.402493,56.198014 436.620511,58.61449 434.3795,60.5855 C432.138489,62.55651 429.546515,64.054995 426.6035,65.081 C423.660485,66.107005 420.569016,66.62 417.329,66.62 C414.142984,66.62 411.078515,66.107005 408.1355,65.081 C405.192485,64.054995 402.614011,62.55651 400.4,60.5855 C398.185989,58.61449 396.417507,56.198014 395.0945,53.336 C393.771493,50.473986 393.11,47.207018 393.11,43.535 C393.11,39.916982 393.771493,36.690514 395.0945,33.8555 C396.417507,31.020486 398.185989,28.63101 400.4,26.687 C402.614011,24.74299 405.192485,23.271505 408.1355,22.2725 C411.078515,21.273495 414.142984,20.774 417.329,20.774 C420.569016,20.774 423.660485,21.273495 426.6035,22.2725 C429.546515,23.271505 432.138489,24.74299 434.3795,26.687 C436.620511,28.63101 438.402493,31.020486 439.7255,33.8555 C441.048507,36.690514 441.71,39.916982 441.71,43.535 Z M417.329,36.488 C415.27699,36.488 413.616506,37.189993 412.3475,38.594 C411.078494,39.998007 410.444,41.644991 410.444,43.535 C410.444,45.53301 411.091994,47.233993 412.388,48.638 C413.684006,50.042007 415.35799,50.744 417.41,50.744 C419.46201,50.744 421.135994,50.042007 422.432,48.638 C423.728006,47.233993 424.376,45.53301 424.376,43.535 C424.376,41.644991 423.714507,39.998007 422.3915,38.594 C421.068493,37.189993 419.38101,36.488 417.329,36.488 Z" id="distefano" fill="url(#linearGradient-1)"></path>
    </g>
</svg>