
<svg width="442px" height="195px" viewBox="102 106 442 195" version="1.1" xmlns="http://www.w3.org/2000/svg" xmlns:xlink="http://www.w3.org/1999/xlink">
    <!-- Generator: Sketch 42 (36781) - http://www.bohemiancoding.com/sketch -->
    <desc>Created with Sketch.</desc>
    <defs></defs>
    <path d="M61.875,232.5 L61.875,210.144 C61.875,207.983989 61.6050027,206.418005 61.065,205.446 C60.5249973,204.473995 59.6340062,203.988 58.392,203.988 C57.4739954,203.988 56.5965042,204.419996 55.7595,205.284 C54.9224958,206.148004 54.504,207.686989 54.504,209.901 L54.504,232.5 L35.793,232.5 L35.793,189.894 L54.018,189.894 L54.018,194.592 L54.18,194.592 C54.7200027,193.889996 55.3814961,193.201503 56.1645,192.5265 C56.9475039,191.851497 57.838495,191.230503 58.8375,190.6635 C59.836505,190.096497 60.9569938,189.637502 62.199,189.2865 C63.4410062,188.935498 64.7909927,188.76 66.249,188.76 C69.057014,188.76 71.4869897,189.259495 73.539,190.2585 C75.5910103,191.257505 77.2109941,192.809989 78.399,194.916 C79.803007,193.187991 81.5309897,191.730006 83.583,190.542 C85.6350103,189.353994 88.2269843,188.76 91.359,188.76 C94.3830151,188.76 96.8804901,189.353994 98.8515,190.542 C100.82251,191.730006 102.388494,193.214991 103.5495,194.997 C104.710506,196.779009 105.520498,198.70949 105.9795,200.7885 C106.438502,202.86751 106.668,204.797991 106.668,206.58 L106.668,232.5 L87.957,232.5 L87.957,209.82 C87.957,207.497988 87.6735028,205.945504 87.1065,205.1625 C86.5394972,204.379496 85.6620059,203.988 84.474,203.988 C83.3939946,203.988 82.4760038,204.487495 81.72,205.4865 C80.9639962,206.485505 80.586,207.95699 80.586,209.901 L80.586,232.5 L61.875,232.5 Z M137.61,214.842 C134.855986,214.842 132.642008,215.138997 130.968,215.733 C129.293992,216.327003 128.457,217.433992 128.457,219.054 C128.457,219.648003 128.591999,220.147498 128.862,220.5525 C129.132001,220.957502 129.482998,221.294999 129.915,221.565 C130.347002,221.835001 130.819497,222.037499 131.3325,222.1725 C131.845503,222.307501 132.317998,222.375 132.75,222.375 C134.532009,222.375 135.962995,221.808006 137.043,220.674 C138.123005,219.539994 138.663,218.082009 138.663,216.3 L138.663,214.842 L137.61,214.842 Z M137.448,205.446 C137.448,204.149994 137.002504,203.191503 136.1115,202.5705 C135.220496,201.949497 134.046007,201.639 132.588,201.639 C130.859991,201.639 129.226508,202.003496 127.6875,202.7325 C126.148492,203.461504 124.785006,204.311995 123.597,205.284 L114.282,196.05 C116.874013,193.565988 119.951982,191.649007 123.516,190.299 C127.080018,188.948993 130.751981,188.274 134.532,188.274 C138.58202,188.274 141.929987,188.840994 144.576,189.975 C147.222013,191.109006 149.314492,192.67499 150.8535,194.673 C152.392508,196.67101 153.472497,198.992987 154.0935,201.639 C154.714503,204.285013 155.025,207.092985 155.025,210.063 L155.025,232.5 L138.096,232.5 L138.096,229.098 L137.934,229.098 C136.853995,230.718008 135.31501,231.878996 133.317,232.581 C131.31899,233.283004 129.375009,233.634 127.485,233.634 C125.810992,233.634 124.096509,233.391002 122.3415,232.905 C120.586491,232.418998 118.993507,231.636005 117.5625,230.556 C116.131493,229.475995 114.957005,228.072009 114.039,226.344 C113.120995,224.615991 112.662,222.483013 112.662,219.945 C112.662,216.974985 113.431492,214.558509 114.9705,212.6955 C116.509508,210.832491 118.466988,209.374505 120.843,208.3215 C123.219012,207.268495 125.878485,206.553002 128.8215,206.175 C131.764515,205.796998 134.639986,205.608 137.448,205.608 L137.448,205.446 Z M180.459,233.634 C174.734971,233.634 170.496014,232.405512 167.742,229.9485 C164.987986,227.491488 163.611,223.671026 163.611,218.487 L163.611,203.259 L157.617,203.259 L157.617,189.894 L163.53,189.894 L163.53,180.336 L181.674,180.336 L181.674,189.894 L190.908,189.894 L190.908,203.259 L181.674,203.259 L181.674,214.599 C181.674,216.65101 182.119496,218.041496 183.0105,218.7705 C183.901504,219.499504 185.129992,219.864 186.696,219.864 C187.290003,219.864 187.910997,219.810001 188.559,219.702 C189.207003,219.593999 189.719998,219.486001 190.098,219.378 L190.098,232.176 C189.125995,232.608002 187.762509,232.958999 186.0075,233.229 C184.252491,233.499001 182.40301,233.634 180.459,233.634 Z M212.13,233.634 C206.405971,233.634 202.167014,232.405512 199.413,229.9485 C196.658986,227.491488 195.282,223.671026 195.282,218.487 L195.282,203.259 L189.288,203.259 L189.288,189.894 L195.201,189.894 L195.201,180.336 L213.345,180.336 L213.345,189.894 L222.579,189.894 L222.579,203.259 L213.345,203.259 L213.345,214.599 C213.345,216.65101 213.790496,218.041496 214.6815,218.7705 C215.572504,219.499504 216.800992,219.864 218.367,219.864 C218.961003,219.864 219.581997,219.810001 220.23,219.702 C220.878003,219.593999 221.390998,219.486001 221.769,219.378 L221.769,232.176 C220.796995,232.608002 219.433509,232.958999 217.6785,233.229 C215.923491,233.499001 214.07401,233.634 212.13,233.634 Z" id="matt" stroke="none" fill="#FFFFFF" fill-rule="evenodd" transform="translate(129.186000, 206.985000) rotate(-90.000000) translate(-129.186000, -206.985000) "></path>
    <path d="M148.592,149.535 C148.592,146.780986 149.010496,144.081013 149.8475,141.435 C150.684504,138.788987 151.912992,136.413011 153.533,134.307 C155.153008,132.200989 157.177988,130.500006 159.608,129.204 C162.038012,127.907994 164.845984,127.26 168.032,127.26 C170.08401,127.26 172.13599,127.651496 174.188,128.4345 C176.24001,129.217504 177.886994,130.337993 179.129,131.796 L179.291,131.796 L179.291,109.764 L197.921,109.764 L197.921,171 L181.154,171 L181.154,166.545 L180.992,166.545 C179.749994,168.273009 177.941012,169.636495 175.565,170.6355 C173.188988,171.634505 170.678013,172.134 168.032,172.134 C164.845984,172.134 162.038012,171.486006 159.608,170.19 C157.177988,168.893994 155.153008,167.179511 153.533,165.0465 C151.912992,162.913489 150.684504,160.497014 149.8475,157.797 C149.010496,155.096987 148.592,152.343014 148.592,149.535 Z M165.926,149.535 C165.926,151.58701 166.519994,153.301493 167.708,154.6785 C168.896006,156.055507 170.623989,156.744 172.892,156.744 C175.106011,156.744 176.874493,156.042007 178.1975,154.638 C179.520507,153.233993 180.182,151.53301 180.182,149.535 C180.182,147.644991 179.520507,145.998007 178.1975,144.594 C176.874493,143.189993 175.106011,142.488 172.892,142.488 C170.623989,142.488 168.896006,143.189993 167.708,144.594 C166.519994,145.998007 165.926,147.644991 165.926,149.535 Z M206.588,128.394 L225.299,128.394 L225.299,171 L206.588,171 L206.588,128.394 Z M206.264,116.082 C206.264,114.785994 206.520497,113.557506 207.0335,112.3965 C207.546503,111.235494 208.248496,110.223004 209.1395,109.359 C210.030504,108.494996 211.069994,107.806503 212.258,107.2935 C213.446006,106.780497 214.714993,106.524 216.065,106.524 C217.361006,106.524 218.575994,106.780497 219.71,107.2935 C220.844006,107.806503 221.856496,108.494996 222.7475,109.359 C223.638504,110.223004 224.340497,111.235494 224.8535,112.3965 C225.366503,113.557506 225.623,114.785994 225.623,116.082 C225.623,117.432007 225.366503,118.687494 224.8535,119.8485 C224.340497,121.009506 223.638504,122.008496 222.7475,122.8455 C221.856496,123.682504 220.844006,124.343998 219.71,124.83 C218.575994,125.316002 217.361006,125.559 216.065,125.559 C214.714993,125.559 213.446006,125.316002 212.258,124.83 C211.069994,124.343998 210.030504,123.682504 209.1395,122.8455 C208.248496,122.008496 207.546503,121.009506 207.0335,119.8485 C206.520497,118.687494 206.264,117.432007 206.264,116.082 Z M268.877,157.473 C268.877,160.335014 268.269506,162.73799 267.0545,164.682 C265.839494,166.62601 264.300509,168.178494 262.4375,169.3395 C260.574491,170.500506 258.536011,171.337497 256.322,171.8505 C254.107989,172.363503 252.00201,172.62 250.004,172.62 C246.331982,172.62 242.727518,172.093505 239.1905,171.0405 C235.653482,169.987495 232.589013,168.48901 229.997,166.545 L239.15,155.934 C240.446006,157.122006 241.971491,158.080496 243.7265,158.8095 C245.481509,159.538504 247.168992,159.903 248.789,159.903 C249.437003,159.903 250.044497,159.781501 250.6115,159.5385 C251.178503,159.295499 251.462,158.850003 251.462,158.202 C251.462,157.499996 250.962505,156.946502 249.9635,156.5415 C248.964495,156.136498 247.223012,155.637003 244.739,155.043 C243.388993,154.718998 242.012007,154.246503 240.608,153.6255 C239.203993,153.004497 237.921506,152.181005 236.7605,151.155 C235.599494,150.128995 234.641004,148.873507 233.885,147.3885 C233.128996,145.903493 232.751,144.13501 232.751,142.083 C232.751,139.328986 233.358494,136.98001 234.5735,135.036 C235.788506,133.09199 237.327491,131.512506 239.1905,130.2975 C241.053509,129.082494 243.078489,128.191503 245.2655,127.6245 C247.452511,127.057497 249.51799,126.774 251.462,126.774 C254.756016,126.774 258.022984,127.259995 261.263,128.232 C264.503016,129.204005 267.418987,130.553991 270.011,132.282 L261.263,142.731 C259.912993,141.866996 258.536007,141.192002 257.132,140.706 C255.727993,140.219998 254.351007,139.977 253.001,139.977 C252.082995,139.977 251.327003,140.098499 250.733,140.3415 C250.138997,140.584501 249.842,141.056996 249.842,141.759 C249.842,142.299003 250.179497,142.717499 250.8545,143.0145 C251.529503,143.311501 253.081988,143.702998 255.512,144.189 C257.186008,144.513002 258.819492,145.012497 260.4125,145.6875 C262.005508,146.362503 263.436494,147.226495 264.7055,148.2795 C265.974506,149.332505 266.986996,150.614992 267.743,152.127 C268.499004,153.639008 268.877,155.42099 268.877,157.473 Z M294.068,172.134 C288.343971,172.134 284.105014,170.905512 281.351,168.4485 C278.596986,165.991488 277.22,162.171026 277.22,156.987 L277.22,141.759 L271.226,141.759 L271.226,128.394 L277.139,128.394 L277.139,118.836 L295.283,118.836 L295.283,128.394 L304.517,128.394 L304.517,141.759 L295.283,141.759 L295.283,153.099 C295.283,155.15101 295.728496,156.541496 296.6195,157.2705 C297.510504,157.999504 298.738992,158.364 300.305,158.364 C300.899003,158.364 301.519997,158.310001 302.168,158.202 C302.816003,158.093999 303.328998,157.986001 303.707,157.878 L303.707,170.676 C302.734995,171.108002 301.371509,171.458999 299.6165,171.729 C297.861491,171.999001 296.01201,172.134 294.068,172.134 Z M337.97,144.027 C337.97,142.514992 337.416506,141.273005 336.3095,140.301 C335.202494,139.328995 333.704009,138.843 331.814,138.843 C329.76199,138.843 328.169006,139.409994 327.035,140.544 C325.900994,141.678006 325.253001,142.838994 325.091,144.027 L337.97,144.027 Z M354.089,150.102 C354.089,150.804004 354.0755,151.519496 354.0485,152.2485 C354.0215,152.977504 353.981,153.584998 353.927,154.071 L325.253,154.071 C325.307,154.827004 325.563498,155.501997 326.0225,156.096 C326.481502,156.690003 327.048497,157.202998 327.7235,157.635 C328.398503,158.067002 329.154496,158.390999 329.9915,158.607 C330.828504,158.823001 331.678996,158.931 332.543,158.931 C334.271009,158.931 335.715494,158.620503 336.8765,157.9995 C338.037506,157.378497 338.914997,156.690004 339.509,155.934 L352.793,162.657 C350.902991,165.735015 348.162518,168.164991 344.5715,169.947 C340.980482,171.729009 336.809024,172.62 332.057,172.62 C328.978985,172.62 325.982015,172.134005 323.066,171.162 C320.149985,170.189995 317.571511,168.74551 315.3305,166.8285 C313.089489,164.91149 311.294007,162.522014 309.944,159.66 C308.593993,156.797986 307.919,153.477019 307.919,149.697 C307.919,146.186982 308.539994,143.014514 309.782,140.1795 C311.024006,137.344486 312.711489,134.94151 314.8445,132.9705 C316.977511,130.99949 319.488486,129.474005 322.3775,128.394 C325.266514,127.313995 328.357984,126.774 331.652,126.774 C335.000017,126.774 338.050986,127.354494 340.805,128.5155 C343.559014,129.676506 345.92149,131.29649 347.8925,133.3755 C349.86351,135.45451 351.388995,137.924986 352.469,140.787 C353.549005,143.649014 354.089,146.753983 354.089,150.102 Z M390.863,122.562 C390.376998,122.345999 389.810003,122.170501 389.162,122.0355 C388.513997,121.900499 387.866003,121.833 387.218,121.833 C385.381991,121.833 384.099504,122.399994 383.3705,123.534 C382.641496,124.668006 382.277,126.098991 382.277,127.827 L382.277,128.394 L391.268,128.394 L391.268,141.759 L382.277,141.759 L382.277,171 L363.647,171 L363.647,141.759 L356.357,141.759 L356.357,128.394 L363.647,128.394 L363.647,127.422 C363.647,124.775987 363.957497,122.238012 364.5785,119.808 C365.199503,117.377988 366.265992,115.231509 367.778,113.3685 C369.290008,111.505491 371.328487,110.034005 373.8935,108.954 C376.458513,107.873995 379.684981,107.334 383.573,107.334 C384.815006,107.334 386.259492,107.428499 387.9065,107.6175 C389.553508,107.806501 390.943994,108.116998 392.078,108.549 L390.863,122.562 Z M417.755,153.342 C415.000986,153.342 412.787008,153.638997 411.113,154.233 C409.438992,154.827003 408.602,155.933992 408.602,157.554 C408.602,158.148003 408.736999,158.647498 409.007,159.0525 C409.277001,159.457502 409.627998,159.794999 410.06,160.065 C410.492002,160.335001 410.964497,160.537499 411.4775,160.6725 C411.990503,160.807501 412.462998,160.875 412.895,160.875 C414.677009,160.875 416.107995,160.308006 417.188,159.174 C418.268005,158.039994 418.808,156.582009 418.808,154.8 L418.808,153.342 L417.755,153.342 Z M417.593,143.946 C417.593,142.649994 417.147504,141.691503 416.2565,141.0705 C415.365496,140.449497 414.191007,140.139 412.733,140.139 C411.004991,140.139 409.371508,140.503496 407.8325,141.2325 C406.293492,141.961504 404.930006,142.811995 403.742,143.784 L394.427,134.55 C397.019013,132.065988 400.096982,130.149007 403.661,128.799 C407.225018,127.448993 410.896981,126.774 414.677,126.774 C418.72702,126.774 422.074987,127.340994 424.721,128.475 C427.367013,129.609006 429.459492,131.17499 430.9985,133.173 C432.537508,135.17101 433.617497,137.492987 434.2385,140.139 C434.859503,142.785013 435.17,145.592985 435.17,148.563 L435.17,171 L418.241,171 L418.241,167.598 L418.079,167.598 C416.998995,169.218008 415.46001,170.378996 413.462,171.081 C411.46399,171.783004 409.520009,172.134 407.63,172.134 C405.955992,172.134 404.241509,171.891002 402.4865,171.405 C400.731491,170.918998 399.138507,170.136005 397.7075,169.056 C396.276493,167.975995 395.102005,166.572009 394.184,164.844 C393.265995,163.115991 392.807,160.983013 392.807,158.445 C392.807,155.474985 393.576492,153.058509 395.1155,151.1955 C396.654508,149.332491 398.611988,147.874505 400.988,146.8215 C403.364012,145.768495 406.023485,145.053002 408.9665,144.675 C411.909515,144.296998 414.784986,144.108 417.593,144.108 L417.593,143.946 Z M442.865,128.394 L461.09,128.394 L461.09,133.092 L461.252,133.092 C462.332005,131.525992 463.938489,130.162506 466.0715,129.0015 C468.204511,127.840494 470.647986,127.26 473.402,127.26 C476.372015,127.26 478.84249,127.799995 480.8135,128.88 C482.78451,129.960005 484.350494,131.350491 485.5115,133.0515 C486.672506,134.752509 487.482498,136.655989 487.9415,138.762 C488.400502,140.868011 488.63,142.973989 488.63,145.08 L488.63,171 L469.838,171 L469.838,148.32 C469.838,146.159989 469.500503,144.648004 468.8255,143.784 C468.150497,142.919996 467.138007,142.488 465.788,142.488 C464.545994,142.488 463.533504,142.987495 462.7505,143.9865 C461.967496,144.985505 461.576,146.429991 461.576,148.32 L461.576,171 L442.865,171 L442.865,128.394 Z M543.71,149.535 C543.71,153.207018 543.048507,156.473986 541.7255,159.336 C540.402493,162.198014 538.620511,164.61449 536.3795,166.5855 C534.138489,168.55651 531.546515,170.054995 528.6035,171.081 C525.660485,172.107005 522.569016,172.62 519.329,172.62 C516.142984,172.62 513.078515,172.107005 510.1355,171.081 C507.192485,170.054995 504.614011,168.55651 502.4,166.5855 C500.185989,164.61449 498.417507,162.198014 497.0945,159.336 C495.771493,156.473986 495.11,153.207018 495.11,149.535 C495.11,145.916982 495.771493,142.690514 497.0945,139.8555 C498.417507,137.020486 500.185989,134.63101 502.4,132.687 C504.614011,130.74299 507.192485,129.271505 510.1355,128.2725 C513.078515,127.273495 516.142984,126.774 519.329,126.774 C522.569016,126.774 525.660485,127.273495 528.6035,128.2725 C531.546515,129.271505 534.138489,130.74299 536.3795,132.687 C538.620511,134.63101 540.402493,137.020486 541.7255,139.8555 C543.048507,142.690514 543.71,145.916982 543.71,149.535 Z M519.329,142.488 C517.27699,142.488 515.616506,143.189993 514.3475,144.594 C513.078494,145.998007 512.444,147.644991 512.444,149.535 C512.444,151.53301 513.091994,153.233993 514.388,154.638 C515.684006,156.042007 517.35799,156.744 519.41,156.744 C521.46201,156.744 523.135994,156.042007 524.432,154.638 C525.728006,153.233993 526.376,151.53301 526.376,149.535 C526.376,147.644991 525.714507,145.998007 524.3915,144.594 C523.068493,143.189993 521.38101,142.488 519.329,142.488 Z" id="distefano" stroke="none" fill="#FF004E" fill-rule="evenodd"></path>
</svg>